<svg width="108" height="10" viewBox="0 0 108 10" fill="none" xmlns="http://www.w3.org/2000/svg">
<path fill-rule="evenodd" clip-rule="evenodd" d="M108 5C108 7.76142 105.761 10 103 10H5C2.23858 10 1.35188e-06 7.76142 3.0195e-06 5L5.73705e-06 0.499997C5.90381e-06 0.223856 0.223862 0 0.500003 0C0.776144 0 1 0.223856 1 0.499997V4.5C1 6.9562 2.99114 8.94734 5.44734 8.94734H55L102.5 8.99544C104.985 8.99796 107 6.98454 107 4.5V0.500076C107 0.223904 107.224 3.38216e-05 107.5 7.55385e-05C107.776 0.000117247 108 0.223963 108 0.500076V5Z" fill="black"/>
</svg>
