<svg width="108" height="22" viewBox="0 0 108 22" fill="none" xmlns="http://www.w3.org/2000/svg">
<path fill-rule="evenodd" clip-rule="evenodd" d="M108 17C108 19.7614 105.761 22 103 22H5C2.23858 22 1.35188e-06 19.7614 3.0195e-06 17L5.73705e-06 12.5C5.90381e-06 12.2239 0.223862 12 0.500003 12C0.776144 12 1 12.2239 1 12.5V16.5C1 18.9562 2.99114 20.9473 5.44734 20.9473H55L102.5 20.9954C104.985 20.998 107 18.9845 107 16.5V12.5001C107 12.2239 107.224 12 107.5 12.0001C107.776 12.0001 108 12.224 108 12.5001V17Z" fill="black"/>
<path d="M8.30141 6.24652C9.07636 6.24652 9.775 6.36394 10.3973 6.59877C11.0196 6.82186 11.5128 7.13302 11.8768 7.53224C12.2408 7.91972 12.4286 8.34829 12.4404 8.81796H11.7006C11.6889 8.46571 11.5245 8.14281 11.2075 7.84927C10.9022 7.55572 10.4912 7.32676 9.97461 7.16237C9.45797 6.99799 8.88262 6.9158 8.24857 6.9158C7.638 6.9158 7.08613 6.99799 6.59298 7.16237C6.09982 7.32676 5.71235 7.55572 5.43054 7.84927C5.14874 8.14281 5.00784 8.46571 5.00784 8.81796C5.00784 9.21718 5.10178 9.55769 5.28964 9.8395C5.48925 10.1213 5.85325 10.362 6.38163 10.5616C6.91001 10.7612 7.66148 10.9197 8.63605 11.0372C10.092 11.2015 11.1312 11.5127 11.7535 11.9706C12.3875 12.4286 12.7046 13.0215 12.7046 13.7495C12.7046 14.3366 12.5167 14.8415 12.141 15.2642C11.7652 15.6986 11.2486 16.0274 10.591 16.2505C9.93351 16.4853 9.19965 16.6028 8.38947 16.6028C7.52058 16.6028 6.76911 16.4795 6.13505 16.2329C5.51274 15.9863 5.02545 15.6575 4.6732 15.2466C4.33269 14.8356 4.13308 14.3836 4.07437 13.8904H4.83171C4.86694 14.2309 5.01958 14.5597 5.28964 14.8767C5.5597 15.182 5.95892 15.4344 6.4873 15.6341C7.01568 15.8337 7.66735 15.9335 8.44231 15.9335C9.11159 15.9335 9.71042 15.8395 10.2388 15.6517C10.7789 15.4755 11.2016 15.2231 11.5069 14.8943C11.8122 14.5656 11.9648 14.1957 11.9648 13.7847C11.9648 13.3972 11.8533 13.0744 11.6302 12.816C11.4071 12.546 11.0255 12.317 10.4854 12.1291C9.94525 11.9413 9.18791 11.7886 8.21334 11.6712C6.78085 11.4951 5.76518 11.1781 5.16635 10.7201C4.56753 10.2622 4.26811 9.65163 4.26811 8.88841C4.26811 8.36003 4.43837 7.89623 4.77888 7.49701C5.13113 7.0978 5.61254 6.79251 6.22311 6.58116C6.83368 6.35806 7.52645 6.24652 8.30141 6.24652ZM15.3531 6.49309H16.0928V8.85319C16.2337 8.45397 16.492 8.05475 16.8678 7.65553C17.2552 7.25631 17.7484 6.92167 18.3472 6.65161C18.946 6.38155 19.6095 6.24652 20.3374 6.24652C21.2416 6.24652 22.0576 6.47548 22.7856 6.93341C23.5136 7.3796 24.0831 8.00191 24.494 8.80035C24.9167 9.58705 25.1281 10.4618 25.1281 11.4246C25.1281 12.3875 24.9167 13.2681 24.494 14.0665C24.0831 14.8532 23.5136 15.4697 22.7856 15.9159C22.0576 16.3738 21.2416 16.6028 20.3374 16.6028C19.6095 16.6028 18.946 16.4677 18.3472 16.1977C17.7484 15.9276 17.2552 15.593 16.8678 15.1937C16.492 14.7945 16.2337 14.3953 16.0928 13.9961V20.6184H15.3531V6.49309ZM20.2846 15.9159C21.0948 15.9159 21.811 15.7162 22.4333 15.317C23.0557 14.9295 23.5371 14.3953 23.8776 13.7143C24.2181 13.0333 24.3884 12.27 24.3884 11.4246C24.3884 10.5792 24.2181 9.81601 23.8776 9.13499C23.5371 8.45397 23.0557 7.91972 22.4333 7.53224C21.811 7.13302 21.0948 6.93341 20.2846 6.93341C19.4744 6.93341 18.7464 7.13302 18.1006 7.53224C17.4666 7.91972 16.9676 8.45984 16.6036 9.1526C16.2513 9.83363 16.0752 10.591 16.0752 11.4246C16.0752 12.2583 16.2513 13.0215 16.6036 13.7143C16.9676 14.3953 17.4666 14.9295 18.1006 15.317C18.7464 15.7162 19.4744 15.9159 20.2846 15.9159ZM32.1024 16.6028C31.1983 16.6028 30.3822 16.3738 29.6543 15.9159C28.9263 15.4697 28.3509 14.8532 27.9282 14.0665C27.5173 13.2681 27.3118 12.3875 27.3118 11.4246C27.3118 10.4618 27.5173 9.58705 27.9282 8.80035C28.3509 8.00191 28.9263 7.3796 29.6543 6.93341C30.3822 6.47548 31.1983 6.24652 32.1024 6.24652C32.8304 6.24652 33.4938 6.38155 34.0926 6.65161C34.6915 6.92167 35.1788 7.25631 35.5545 7.65553C35.942 8.05475 36.2062 8.45397 36.3471 8.85319V6.49309H37.0868V16.3562H36.3471V13.9961C36.2062 14.3953 35.942 14.7945 35.5545 15.1937C35.1788 15.593 34.6915 15.9276 34.0926 16.1977C33.4938 16.4677 32.8304 16.6028 32.1024 16.6028ZM32.1552 15.9159C32.9654 15.9159 33.6875 15.7162 34.3216 15.317C34.9674 14.9295 35.4664 14.3953 35.8187 13.7143C36.1827 13.0215 36.3647 12.2583 36.3647 11.4246C36.3647 10.591 36.1827 9.83363 35.8187 9.1526C35.4664 8.45984 34.9674 7.91972 34.3216 7.53224C33.6875 7.13302 32.9654 6.93341 32.1552 6.93341C31.3451 6.93341 30.6288 7.13302 30.0065 7.53224C29.3842 7.91972 28.9028 8.45397 28.5623 9.13499C28.2218 9.81601 28.0515 10.5792 28.0515 11.4246C28.0515 12.27 28.2218 13.0333 28.5623 13.7143C28.9028 14.3953 29.3842 14.9295 30.0065 15.317C30.6288 15.7162 31.3451 15.9159 32.1552 15.9159ZM49.1336 13.1859C48.8635 14.2074 48.3234 15.0294 47.5132 15.6517C46.7148 16.2857 45.7872 16.6028 44.7304 16.6028C43.8028 16.6028 42.9633 16.3738 42.2118 15.9159C41.4603 15.4697 40.8674 14.8532 40.4329 14.0665C40.0102 13.2681 39.7989 12.3875 39.7989 11.4246C39.7989 10.4618 40.0102 9.58705 40.4329 8.80035C40.8556 8.00191 41.4368 7.3796 42.1766 6.93341C42.928 6.47548 43.7617 6.24652 44.6776 6.24652C45.7343 6.24652 46.6619 6.55767 47.4604 7.17999C48.2705 7.8023 48.8224 8.61835 49.1159 9.62814H48.3586C48.0885 8.81796 47.6247 8.1663 46.9672 7.67314C46.3214 7.17999 45.5582 6.93341 44.6776 6.93341C43.8791 6.93341 43.1629 7.13302 42.5288 7.53224C41.9065 7.91972 41.4192 8.45397 41.067 9.13499C40.7147 9.81601 40.5386 10.5792 40.5386 11.4246C40.5386 12.27 40.7147 13.0333 41.067 13.7143C41.4192 14.3953 41.9065 14.9295 42.5288 15.317C43.1629 15.7162 43.8791 15.9159 44.6776 15.9159C45.5582 15.9159 46.3332 15.6634 47.0024 15.1585C47.6717 14.6536 48.1296 13.9961 48.3762 13.1859H49.1336ZM56.0618 16.6028C55.1577 16.6028 54.3416 16.3738 53.6136 15.9159C52.8856 15.4697 52.3103 14.8532 51.8876 14.0665C51.4766 13.2798 51.2712 12.3992 51.2712 11.4246C51.2712 10.4501 51.4766 9.56944 51.8876 8.78274C52.3103 7.99604 52.8856 7.3796 53.6136 6.93341C54.3416 6.47548 55.1577 6.24652 56.0618 6.24652C56.9659 6.24652 57.782 6.47548 58.51 6.93341C59.2379 7.3796 59.8074 7.99604 60.2184 8.78274C60.6411 9.56944 60.8524 10.4501 60.8524 11.4246C60.8524 11.589 60.8466 11.7006 60.8348 11.7593H52.0285C52.0755 12.546 52.2751 13.2563 52.6273 13.8904C52.9796 14.5245 53.4493 15.0176 54.0363 15.3699C54.6352 15.7339 55.3103 15.9159 56.0618 15.9159C56.9189 15.9159 57.6645 15.7221 58.2986 15.3346C58.9444 14.9589 59.3788 14.4716 59.6019 13.8728H60.4121C60.1303 14.6712 59.5961 15.3229 58.8094 15.8278C58.0344 16.3444 57.1186 16.6028 56.0618 16.6028ZM60.0951 11.0724C60.0481 10.2857 59.8485 9.58118 59.4963 8.95886C59.144 8.32481 58.6685 7.83166 58.0696 7.4794C57.4825 7.11541 56.8133 6.93341 56.0618 6.93341C55.3103 6.93341 54.6352 7.11541 54.0363 7.4794C53.4493 7.83166 52.9796 8.32481 52.6273 8.95886C52.2751 9.58118 52.0755 10.2857 52.0285 11.0724H60.0951ZM72.3189 13.1859C72.0489 14.2074 71.5088 15.0294 70.6986 15.6517C69.9001 16.2857 68.9725 16.6028 67.9158 16.6028C66.9882 16.6028 66.1487 16.3738 65.3972 15.9159C64.6457 15.4697 64.0527 14.8532 63.6183 14.0665C63.1956 13.2681 62.9842 12.3875 62.9842 11.4246C62.9842 10.4618 63.1956 9.58705 63.6183 8.80035C64.041 8.00191 64.6222 7.3796 65.362 6.93341C66.1134 6.47548 66.9471 6.24652 67.863 6.24652C68.9197 6.24652 69.8473 6.55767 70.6457 7.17999C71.4559 7.8023 72.0078 8.61835 72.3013 9.62814H71.544C71.2739 8.81796 70.8101 8.1663 70.1526 7.67314C69.5068 7.17999 68.7436 6.93341 67.863 6.93341C67.0645 6.93341 66.3483 7.13302 65.7142 7.53224C65.0919 7.91972 64.6046 8.45397 64.2524 9.13499C63.9001 9.81601 63.724 10.5792 63.724 11.4246C63.724 12.27 63.9001 13.0333 64.2524 13.7143C64.6046 14.3953 65.0919 14.9295 65.7142 15.317C66.3483 15.7162 67.0645 15.9159 67.863 15.9159C68.7436 15.9159 69.5185 15.6634 70.1878 15.1585C70.8571 14.6536 71.315 13.9961 71.5616 13.1859H72.3189ZM74.9849 2.01948H75.7247V8.94125C75.8303 8.57726 76.0593 8.18978 76.4115 7.77882C76.7638 7.35611 77.2276 6.99799 77.8029 6.70445C78.39 6.39916 79.0593 6.24652 79.8108 6.24652C80.5623 6.24652 81.2315 6.42264 81.8186 6.7749C82.4175 7.12715 82.8813 7.63205 83.21 8.28958C83.5388 8.93538 83.7032 9.68098 83.7032 10.5264V16.3562H82.9635V10.6497C82.9635 9.46376 82.6699 8.5479 82.0828 7.90211C81.4957 7.25631 80.6856 6.93341 79.6523 6.93341C78.9478 6.93341 78.2902 7.14476 77.6797 7.56747C77.0808 7.97843 76.6053 8.51855 76.253 9.18783C75.9008 9.84537 75.7247 10.5205 75.7247 11.2133V16.3562H74.9849V2.01948ZM90.9259 16.6028C90.0218 16.6028 89.2057 16.3738 88.4777 15.9159C87.7497 15.4697 87.1744 14.8532 86.7517 14.0665C86.3407 13.2681 86.1352 12.3875 86.1352 11.4246C86.1352 10.4618 86.3407 9.58705 86.7517 8.80035C87.1744 8.00191 87.7497 7.3796 88.4777 6.93341C89.2057 6.47548 90.0218 6.24652 90.9259 6.24652C91.6539 6.24652 92.3173 6.38155 92.9161 6.65161C93.5149 6.92167 94.0022 7.25631 94.378 7.65553C94.7654 8.05475 95.0296 8.45397 95.1705 8.85319V6.49309H95.9103V16.3562H95.1705V13.9961C95.0296 14.3953 94.7654 14.7945 94.378 15.1937C94.0022 15.593 93.5149 15.9276 92.9161 16.1977C92.3173 16.4677 91.6539 16.6028 90.9259 16.6028ZM90.9787 15.9159C91.7889 15.9159 92.511 15.7162 93.1451 15.317C93.7909 14.9295 94.2899 14.3953 94.6421 13.7143C95.0061 13.0215 95.1881 12.2583 95.1881 11.4246C95.1881 10.591 95.0061 9.83363 94.6421 9.1526C94.2899 8.45984 93.7909 7.91972 93.1451 7.53224C92.511 7.13302 91.7889 6.93341 90.9787 6.93341C90.1685 6.93341 89.4523 7.13302 88.83 7.53224C88.2077 7.91972 87.7263 8.45397 87.3857 9.13499C87.0452 9.81601 86.875 10.5792 86.875 11.4246C86.875 12.27 87.0452 13.0333 87.3857 13.7143C87.7263 14.3953 88.2077 14.9295 88.83 15.317C89.4523 15.7162 90.1685 15.9159 90.9787 15.9159ZM103.607 7.17999H101.211V16.3562H100.472V7.17999H98.0763V6.49309H100.472V3.4285H101.211V6.49309H103.607V7.17999Z" fill="black"/>
</svg>
