<svg width="100" height="19" viewBox="0 0 100 19" fill="none" xmlns="http://www.w3.org/2000/svg">
<path d="M4.30141 4.24652C5.07636 4.24652 5.775 4.36394 6.39731 4.59877C7.01962 4.82186 7.51278 5.13302 7.87677 5.53224C8.24077 5.91972 8.42863 6.34829 8.44038 6.81796H7.70064C7.6889 6.46571 7.52452 6.14281 7.20749 5.84927C6.90221 5.55572 6.49124 5.32676 5.97461 5.16237C5.45797 4.99799 4.88262 4.9158 4.24857 4.9158C3.638 4.9158 3.08613 4.99799 2.59298 5.16237C2.09982 5.32676 1.71235 5.55572 1.43054 5.84927C1.14874 6.14281 1.00784 6.46571 1.00784 6.81796C1.00784 7.21718 1.10178 7.55769 1.28964 7.8395C1.48925 8.1213 1.85325 8.362 2.38163 8.56161C2.91001 8.76122 3.66148 8.91974 4.63605 9.03716C6.09202 9.20154 7.13117 9.5127 7.75348 9.97063C8.38754 10.4286 8.70456 11.0215 8.70456 11.7495C8.70456 12.3366 8.5167 12.8415 8.14096 13.2642C7.76522 13.6986 7.24859 14.0274 6.59105 14.2505C5.93351 14.4853 5.19965 14.6028 4.38947 14.6028C3.52058 14.6028 2.76911 14.4795 2.13505 14.2329C1.51274 13.9863 1.02545 13.6575 0.673201 13.2466C0.33269 12.8356 0.13308 12.3836 0.0743711 11.8904H0.831715C0.86694 12.2309 1.01958 12.5597 1.28964 12.8767C1.5597 13.182 1.95892 13.4344 2.4873 13.6341C3.01568 13.8337 3.66735 13.9335 4.44231 13.9335C5.11159 13.9335 5.71042 13.8395 6.2388 13.6517C6.77892 13.4755 7.20162 13.2231 7.50691 12.8943C7.81219 12.5656 7.96483 12.1957 7.96483 11.7847C7.96483 11.3972 7.85329 11.0744 7.63019 10.816C7.4071 10.546 7.02549 10.317 6.48537 10.1291C5.94525 9.94127 5.18791 9.78863 4.21334 9.67121C2.78085 9.49508 1.76518 9.17806 1.16635 8.72013C0.567525 8.2622 0.26811 7.65163 0.26811 6.88841C0.26811 6.36003 0.438366 5.89623 0.778877 5.49701C1.13113 5.0978 1.61254 4.79251 2.22311 4.58116C2.83368 4.35806 3.52645 4.24652 4.30141 4.24652ZM11.3531 4.49309H12.0928V6.85319C12.2337 6.45397 12.492 6.05475 12.8678 5.65553C13.2552 5.25631 13.7484 4.92167 14.3472 4.65161C14.946 4.38155 15.6095 4.24652 16.3374 4.24652C17.2416 4.24652 18.0576 4.47548 18.7856 4.93341C19.5136 5.3796 20.0831 6.00191 20.494 6.80035C20.9167 7.58705 21.1281 8.46181 21.1281 9.42463C21.1281 10.3875 20.9167 11.2681 20.494 12.0665C20.0831 12.8532 19.5136 13.4697 18.7856 13.9159C18.0576 14.3738 17.2416 14.6028 16.3374 14.6028C15.6095 14.6028 14.946 14.4677 14.3472 14.1977C13.7484 13.9276 13.2552 13.593 12.8678 13.1937C12.492 12.7945 12.2337 12.3953 12.0928 11.9961V18.6184H11.3531V4.49309ZM16.2846 13.9159C17.0948 13.9159 17.811 13.7162 18.4333 13.317C19.0557 12.9295 19.5371 12.3953 19.8776 11.7143C20.2181 11.0333 20.3884 10.27 20.3884 9.42463C20.3884 8.57923 20.2181 7.81601 19.8776 7.13499C19.5371 6.45397 19.0557 5.91972 18.4333 5.53224C17.811 5.13302 17.0948 4.93341 16.2846 4.93341C15.4744 4.93341 14.7464 5.13302 14.1006 5.53224C13.4666 5.91972 12.9676 6.45984 12.6036 7.1526C12.2513 7.83363 12.0752 8.59097 12.0752 9.42463C12.0752 10.2583 12.2513 11.0215 12.6036 11.7143C12.9676 12.3953 13.4666 12.9295 14.1006 13.317C14.7464 13.7162 15.4744 13.9159 16.2846 13.9159ZM28.1024 14.6028C27.1983 14.6028 26.3822 14.3738 25.6543 13.9159C24.9263 13.4697 24.3509 12.8532 23.9282 12.0665C23.5173 11.2681 23.3118 10.3875 23.3118 9.42463C23.3118 8.46181 23.5173 7.58705 23.9282 6.80035C24.3509 6.00191 24.9263 5.3796 25.6543 4.93341C26.3822 4.47548 27.1983 4.24652 28.1024 4.24652C28.8304 4.24652 29.4938 4.38155 30.0926 4.65161C30.6915 4.92167 31.1788 5.25631 31.5545 5.65553C31.942 6.05475 32.2062 6.45397 32.3471 6.85319V4.49309H33.0868V14.3562H32.3471V11.9961C32.2062 12.3953 31.942 12.7945 31.5545 13.1937C31.1788 13.593 30.6915 13.9276 30.0926 14.1977C29.4938 14.4677 28.8304 14.6028 28.1024 14.6028ZM28.1552 13.9159C28.9654 13.9159 29.6875 13.7162 30.3216 13.317C30.9674 12.9295 31.4664 12.3953 31.8187 11.7143C32.1827 11.0215 32.3647 10.2583 32.3647 9.42463C32.3647 8.59097 32.1827 7.83363 31.8187 7.1526C31.4664 6.45984 30.9674 5.91972 30.3216 5.53224C29.6875 5.13302 28.9654 4.93341 28.1552 4.93341C27.3451 4.93341 26.6288 5.13302 26.0065 5.53224C25.3842 5.91972 24.9028 6.45397 24.5623 7.13499C24.2218 7.81601 24.0515 8.57923 24.0515 9.42463C24.0515 10.27 24.2218 11.0333 24.5623 11.7143C24.9028 12.3953 25.3842 12.9295 26.0065 13.317C26.6288 13.7162 27.3451 13.9159 28.1552 13.9159ZM45.1336 11.1859C44.8635 12.2074 44.3234 13.0294 43.5132 13.6517C42.7148 14.2857 41.7872 14.6028 40.7304 14.6028C39.8028 14.6028 38.9633 14.3738 38.2118 13.9159C37.4603 13.4697 36.8674 12.8532 36.4329 12.0665C36.0102 11.2681 35.7989 10.3875 35.7989 9.42463C35.7989 8.46181 36.0102 7.58705 36.4329 6.80035C36.8556 6.00191 37.4368 5.3796 38.1766 4.93341C38.928 4.47548 39.7617 4.24652 40.6776 4.24652C41.7343 4.24652 42.6619 4.55767 43.4604 5.17999C44.2705 5.8023 44.8224 6.61835 45.1159 7.62814H44.3586C44.0885 6.81796 43.6247 6.1663 42.9672 5.67314C42.3214 5.17999 41.5582 4.93341 40.6776 4.93341C39.8791 4.93341 39.1629 5.13302 38.5288 5.53224C37.9065 5.91972 37.4192 6.45397 37.067 7.13499C36.7147 7.81601 36.5386 8.57923 36.5386 9.42463C36.5386 10.27 36.7147 11.0333 37.067 11.7143C37.4192 12.3953 37.9065 12.9295 38.5288 13.317C39.1629 13.7162 39.8791 13.9159 40.6776 13.9159C41.5582 13.9159 42.3332 13.6634 43.0024 13.1585C43.6717 12.6536 44.1296 11.9961 44.3762 11.1859H45.1336ZM52.0618 14.6028C51.1577 14.6028 50.3416 14.3738 49.6136 13.9159C48.8856 13.4697 48.3103 12.8532 47.8876 12.0665C47.4766 11.2798 47.2712 10.3992 47.2712 9.42463C47.2712 8.45007 47.4766 7.56944 47.8876 6.78274C48.3103 5.99604 48.8856 5.3796 49.6136 4.93341C50.3416 4.47548 51.1577 4.24652 52.0618 4.24652C52.9659 4.24652 53.782 4.47548 54.51 4.93341C55.2379 5.3796 55.8074 5.99604 56.2184 6.78274C56.6411 7.56944 56.8524 8.45007 56.8524 9.42463C56.8524 9.58902 56.8466 9.70057 56.8348 9.75927H48.0285C48.0755 10.546 48.2751 11.2563 48.6273 11.8904C48.9796 12.5245 49.4493 13.0176 50.0363 13.3699C50.6352 13.7339 51.3103 13.9159 52.0618 13.9159C52.9189 13.9159 53.6645 13.7221 54.2986 13.3346C54.9444 12.9589 55.3788 12.4716 55.6019 11.8728H56.4121C56.1303 12.6712 55.5961 13.3229 54.8094 13.8278C54.0344 14.3444 53.1186 14.6028 52.0618 14.6028ZM56.0951 9.07238C56.0481 8.28568 55.8485 7.58118 55.4963 6.95886C55.144 6.32481 54.6685 5.83166 54.0696 5.4794C53.4825 5.11541 52.8133 4.93341 52.0618 4.93341C51.3103 4.93341 50.6352 5.11541 50.0363 5.4794C49.4493 5.83166 48.9796 6.32481 48.6273 6.95886C48.2751 7.58118 48.0755 8.28568 48.0285 9.07238H56.0951ZM68.3189 11.1859C68.0489 12.2074 67.5088 13.0294 66.6986 13.6517C65.9001 14.2857 64.9725 14.6028 63.9158 14.6028C62.9882 14.6028 62.1487 14.3738 61.3972 13.9159C60.6457 13.4697 60.0527 12.8532 59.6183 12.0665C59.1956 11.2681 58.9842 10.3875 58.9842 9.42463C58.9842 8.46181 59.1956 7.58705 59.6183 6.80035C60.041 6.00191 60.6222 5.3796 61.362 4.93341C62.1134 4.47548 62.9471 4.24652 63.863 4.24652C64.9197 4.24652 65.8473 4.55767 66.6457 5.17999C67.4559 5.8023 68.0078 6.61835 68.3013 7.62814H67.544C67.2739 6.81796 66.8101 6.1663 66.1526 5.67314C65.5068 5.17999 64.7436 4.93341 63.863 4.93341C63.0645 4.93341 62.3483 5.13302 61.7142 5.53224C61.0919 5.91972 60.6046 6.45397 60.2524 7.13499C59.9001 7.81601 59.724 8.57923 59.724 9.42463C59.724 10.27 59.9001 11.0333 60.2524 11.7143C60.6046 12.3953 61.0919 12.9295 61.7142 13.317C62.3483 13.7162 63.0645 13.9159 63.863 13.9159C64.7436 13.9159 65.5185 13.6634 66.1878 13.1585C66.8571 12.6536 67.315 11.9961 67.5616 11.1859H68.3189ZM70.9849 0.0194832H71.7247V6.94125C71.8303 6.57726 72.0593 6.18978 72.4115 5.77882C72.7638 5.35611 73.2276 4.99799 73.8029 4.70445C74.39 4.39916 75.0593 4.24652 75.8108 4.24652C76.5623 4.24652 77.2315 4.42264 77.8186 4.7749C78.4175 5.12715 78.8813 5.63205 79.21 6.28958C79.5388 6.93538 79.7032 7.68098 79.7032 8.52639V14.3562H78.9635V8.64968C78.9635 7.46376 78.6699 6.5479 78.0828 5.90211C77.4957 5.25631 76.6856 4.93341 75.6523 4.93341C74.9478 4.93341 74.2902 5.14476 73.6797 5.56747C73.0808 5.97843 72.6053 6.51855 72.253 7.18783C71.9008 7.84537 71.7247 8.52052 71.7247 9.21328V14.3562H70.9849V0.0194832ZM86.9259 14.6028C86.0218 14.6028 85.2057 14.3738 84.4777 13.9159C83.7497 13.4697 83.1744 12.8532 82.7517 12.0665C82.3407 11.2681 82.1352 10.3875 82.1352 9.42463C82.1352 8.46181 82.3407 7.58705 82.7517 6.80035C83.1744 6.00191 83.7497 5.3796 84.4777 4.93341C85.2057 4.47548 86.0218 4.24652 86.9259 4.24652C87.6539 4.24652 88.3173 4.38155 88.9161 4.65161C89.5149 4.92167 90.0022 5.25631 90.378 5.65553C90.7654 6.05475 91.0296 6.45397 91.1705 6.85319V4.49309H91.9103V14.3562H91.1705V11.9961C91.0296 12.3953 90.7654 12.7945 90.378 13.1937C90.0022 13.593 89.5149 13.9276 88.9161 14.1977C88.3173 14.4677 87.6539 14.6028 86.9259 14.6028ZM86.9787 13.9159C87.7889 13.9159 88.511 13.7162 89.1451 13.317C89.7909 12.9295 90.2899 12.3953 90.6421 11.7143C91.0061 11.0215 91.1881 10.2583 91.1881 9.42463C91.1881 8.59097 91.0061 7.83363 90.6421 7.1526C90.2899 6.45984 89.7909 5.91972 89.1451 5.53224C88.511 5.13302 87.7889 4.93341 86.9787 4.93341C86.1685 4.93341 85.4523 5.13302 84.83 5.53224C84.2077 5.91972 83.7263 6.45397 83.3857 7.13499C83.0452 7.81601 82.875 8.57923 82.875 9.42463C82.875 10.27 83.0452 11.0333 83.3857 11.7143C83.7263 12.3953 84.2077 12.9295 84.83 13.317C85.4523 13.7162 86.1685 13.9159 86.9787 13.9159ZM99.6067 5.17999H97.2114V14.3562H96.4717V5.17999H94.0763V4.49309H96.4717V1.4285H97.2114V4.49309H99.6067V5.17999Z" fill="black"/>
</svg>
