<svg width="16" height="15" viewBox="0 0 16 15" fill="none" xmlns="http://www.w3.org/2000/svg">
<path d="M15.3508 8.16452L9.72578 13.7895C9.54966 13.9656 9.31079 14.0646 9.06172 14.0646C8.81265 14.0646 8.57378 13.9656 8.39766 13.7895C8.22154 13.6134 8.12259 13.3745 8.12259 13.1255C8.12259 12.8764 8.22154 12.6375 8.39766 12.4614L12.4219 8.43874H0.9375C0.68886 8.43874 0.450403 8.33996 0.274587 8.16415C0.0987721 7.98833 0 7.74988 0 7.50124C0 7.2526 0.0987721 7.01414 0.274587 6.83832C0.450403 6.66251 0.68886 6.56374 0.9375 6.56374H12.4219L8.39922 2.53874C8.2231 2.36262 8.12416 2.12374 8.12416 1.87467C8.12416 1.6256 8.2231 1.38673 8.39922 1.21061C8.57534 1.03449 8.81421 0.935547 9.06328 0.935547C9.31235 0.935547 9.55122 1.03449 9.72734 1.21061L15.3523 6.83561C15.4398 6.92282 15.5091 7.02645 15.5563 7.14053C15.6036 7.25461 15.6278 7.37691 15.6277 7.50039C15.6275 7.62387 15.603 7.74611 15.5555 7.86008C15.508 7.97405 15.4384 8.07751 15.3508 8.16452Z" fill="#61605A"/>
</svg>
